<svg width="100" height="100" viewBox="0 0 100 100" fill="none" xmlns="http://www.w3.org/2000/svg">
<rect width="100" height="100" rx="50" fill="#D68904"/>
<path fill-rule="evenodd" clip-rule="evenodd" d="M50 29C38.4108 29 29 38.4108 29 50C29 61.5911 38.4108 71 50 71C61.5892 71 71 61.5911 71 50C71 38.4108 61.5892 29 50 29ZM50 32.8185C59.4814 32.8185 67.1815 40.5186 67.1815 50C67.1815 59.4833 59.4814 67.1815 50 67.1815C40.5167 67.1815 32.8185 59.4833 32.8185 50C32.8185 40.5186 40.5167 32.8185 50 32.8185Z" fill="white"/>
<path fill-rule="evenodd" clip-rule="evenodd" d="M55.9913 57.3411C55.808 57.8069 55.4262 58.4293 54.6414 58.9601C53.5226 59.7162 52.8028 61.0374 52.4878 62.5973C51.9341 65.3256 52.5909 68.7928 52.5909 68.7928C52.7933 69.8257 53.7956 70.5035 54.8305 70.3011C55.8634 70.1007 56.5412 69.0964 56.3388 68.0635C56.3388 68.0635 55.9531 66.0893 56.1135 64.1953C56.1593 63.6645 56.2433 63.1414 56.419 62.6889C56.5068 62.4636 56.5965 62.246 56.7798 62.1238C60.2222 59.7964 59.9798 56.4933 59.9798 56.4933C59.9588 55.9492 59.7029 55.4394 59.281 55.0939C59.1931 55.0213 59.1015 54.9583 59.0041 54.9048C58.8857 54.5306 58.6452 53.6886 58.6566 53.1159C58.6624 52.8505 58.6891 52.5889 58.7655 52.356C58.7903 52.2815 58.7769 52.1841 58.8476 52.1517C59.2447 51.976 59.554 52.0906 59.9664 52.0887C60.8389 52.0868 61.9463 52.0066 63.72 51.2601C64.9916 50.7216 65.6846 50.0209 66.1906 49.3164C66.4121 49.0109 66.5877 48.7036 66.7672 48.4095C66.8512 48.2721 66.9085 48.1193 67.0574 48.0239C67.2903 47.873 67.6416 47.8539 68.1896 47.8539C69.2435 47.8539 70.0989 46.9986 70.0989 45.9447C70.0989 44.8908 69.2435 44.0354 68.1896 44.0354C65.8087 44.0354 64.7968 44.7781 64.0847 45.6067C63.8116 45.9256 63.5921 46.2788 63.3668 46.6549C63.1453 47.0253 62.9162 47.453 62.2346 47.7413C60.6098 48.4267 59.8385 48.2511 59.1473 48.2663C58.5421 48.2797 57.9693 48.3637 57.2972 48.6635C56.0887 49.2019 55.3192 50.2806 55.0042 51.6438C54.6624 53.1216 54.903 54.9564 55.3765 56.1955C55.5503 56.648 55.7641 57.0318 55.9913 57.3411Z" fill="white"/>
<path fill-rule="evenodd" clip-rule="evenodd" d="M46.1699 39.5296C47.0005 39.4762 47.7069 38.8862 47.9036 38.0671L49.494 31.4133C49.7384 30.3881 49.1064 29.3571 48.0811 29.1127C47.0558 28.8664 46.0248 29.5003 45.7805 30.5255L44.4382 36.1369C43.9857 36.3564 43.5218 36.6581 43.075 37.0342C41.4903 38.3669 39.9591 40.5816 39.9591 40.5816C39.751 40.8852 39.6345 41.2442 39.625 41.6126C39.625 41.6126 39.5811 46.4507 43.9896 47.1858C46.7981 47.6536 47.579 47.5734 49.7632 48.0411C51.2887 48.3676 52.2032 48.0239 53.2285 47.3443C54.0056 46.8288 54.9029 45.9371 57.1959 45.3853C57.3124 45.3586 57.4251 45.3185 57.5339 45.2708L61.6369 43.4207C62.0798 43.2221 62.4292 42.8613 62.6163 42.4145L64.5943 37.6643C64.9991 36.6925 64.539 35.5736 63.5672 35.1689C62.5934 34.7622 61.4746 35.2242 61.0698 36.1961L59.3801 40.2494L56.1229 41.7176C54.1679 42.2102 52.9822 42.8785 52.1039 43.4704C51.7545 43.7052 51.4605 43.9286 51.1856 44.1157C50.9927 44.2474 50.8438 44.3677 50.5632 44.3066C48.3121 43.8255 47.5102 43.9018 44.6177 43.4188C43.8311 43.289 43.5676 42.6837 43.4798 42.2312C43.8368 41.7539 44.4134 41.0303 45.0492 40.4022C45.4024 40.0528 46.0592 39.6041 46.1699 39.5296Z" fill="white"/>
<path fill-rule="evenodd" clip-rule="evenodd" d="M30.2316 48.0164C31.0927 50.3056 33.1471 52.1518 36.0454 52.1518C36.0568 52.1518 36.0702 52.1518 36.0816 52.1518C37.1527 52.1308 38.2486 52.6387 38.9493 53.3413C39.3064 53.6964 39.6863 54.0878 39.4209 54.4907C38.8768 55.3117 39.0467 56.4133 39.8142 57.03C39.8142 57.03 41.2958 58.2405 41.5555 60.2452C41.6338 60.8543 41.3665 61.385 41.1125 61.8986C40.8242 62.4848 40.4997 63.048 40.2534 63.5998C39.5947 65.0833 39.4343 66.5229 40.4023 68.0369C40.9713 68.9247 42.1531 69.1844 43.0409 68.6173C43.9268 68.0484 44.1865 66.8665 43.6194 65.9787C43.4781 65.7572 43.5831 65.5472 43.6671 65.3315C43.8504 64.8637 44.1254 64.3921 44.3793 63.8995C45.0304 62.6394 45.5382 61.2762 45.3416 59.7564C45.0724 57.6696 44.0452 56.0715 43.2395 55.1074C43.4953 53.9141 43.1841 52.6845 42.4261 51.5714C41.1794 49.7423 38.5656 48.2894 36.0205 48.3333C34.9074 48.3314 34.1399 47.5639 33.8058 46.6722C33.4335 45.6851 32.3318 45.1868 31.3467 45.5572C30.3596 45.9276 29.8593 47.0293 30.2316 48.0164Z" fill="white"/>
</svg>