<svg width="100" height="100" viewBox="0 0 100 100" fill="none" xmlns="http://www.w3.org/2000/svg">
<rect width="100" height="100" rx="50" fill="#F46201"/>
<path d="M60.8814 53.599C67.9103 45.634 72.6346 35.807 68.4409 31.5952C64.2162 27.3529 54.3893 32.141 46.4142 39.27C44.886 37.5969 42.853 36.4014 40.3438 35.767C39.9191 35.6635 39.4692 35.7536 39.1193 36.022C38.7723 36.2899 38.5668 36.7027 38.5635 37.1422C38.5244 41.8316 36.174 45.4852 33.9008 49.0197C30.5708 54.1949 27.1288 59.5468 33.8583 66.3026C40.2843 72.7552 45.7068 69.5549 51.3038 65.814C54.834 63.4545 58.4886 61.0178 62.7247 61.4564C63.1947 61.5012 63.6504 61.3224 63.9559 60.9678C64.2619 60.6131 64.374 60.1322 64.2581 59.6789C63.6027 57.1283 62.4649 55.1024 60.8814 53.599ZM66.4146 33.6134C68.6306 35.839 65.9565 43.6377 58.5358 51.9331C55.8083 50.5126 52.7395 50.2929 49.6722 50.5989C49.9029 47.0687 49.3414 44.0452 48.0672 41.6323C56.3703 34.0977 64.1814 31.3702 66.4146 33.6134ZM36.3055 50.5665C38.3981 47.3132 40.7366 43.6782 41.2981 39.0917C46.4275 41.2653 47.1921 46.5387 46.7688 51.0374C42.9426 51.7972 38.5077 53.3345 33.4298 55.6568C34.0452 54.0809 35.102 52.4383 36.3055 50.5665ZM49.7146 63.4364C44.0852 67.1973 40.6704 69.0887 35.8846 64.2849C33.9723 62.3639 33.0847 60.6842 32.8974 59.0606C32.9231 59.0502 32.9489 59.0392 32.9751 59.0263C44.1448 53.6891 52.1961 52.1004 56.9137 54.3021C58.7174 55.1444 60.0263 56.5481 60.8819 58.5706C56.5757 58.8514 52.9588 61.2686 49.7146 63.4364Z" fill="white"/>
</svg>
