<svg width="100" height="100" viewBox="0 0 100 100" fill="none" xmlns="http://www.w3.org/2000/svg">
<rect width="100" height="100" rx="50" fill="#C20D00"/>
<path fill-rule="evenodd" clip-rule="evenodd" d="M36.4113 60.7692H36.8897C37.739 60.7692 38.4282 60.08 38.4282 59.2308C38.4282 58.3815 37.739 57.6923 36.8897 57.6923H32.5385C31.6887 57.6923 31 58.381 31 59.2308V63.5821C31 64.4313 31.6892 65.1205 32.5385 65.1205C33.3877 65.1205 34.0769 64.4313 34.0769 63.5821V62.7744C37.7467 67.1887 43.2785 70 49.4615 70C60.5 70 69.4615 61.0385 69.4615 50C69.4615 49.1508 68.7723 48.4615 67.9231 48.4615C67.0738 48.4615 66.3846 49.1508 66.3846 50C66.3846 59.34 58.8015 66.9231 49.4615 66.9231C44.2113 66.9231 39.5164 64.5267 36.4113 60.7692ZM50.2308 43.7928C49.9236 43.5185 49.5959 43.259 49.2523 43.0415C48.5318 42.5846 47.7446 42.3077 46.9338 42.3077C45.2805 42.3077 43.7636 43.1272 42.6785 44.3431C41.6226 45.5267 41 47.0703 41 48.4615C41 51.3687 42.4138 53.7128 44.1585 55.4569C46.6026 57.901 49.6595 59.1205 49.6595 59.1205C50.0262 59.2677 50.4354 59.2677 50.802 59.1205C50.802 59.1205 53.8697 57.8985 56.3215 55.3615C58.0508 53.5728 59.4615 51.1544 59.4615 48.1067C59.4615 44.9195 56.8159 42.3077 53.5277 42.3077C52.7169 42.3077 51.9297 42.5846 51.2092 43.0415C50.8656 43.259 50.5379 43.5185 50.2308 43.7928ZM49.0933 47.0118C49.3846 47.3323 49.7979 47.5149 50.2308 47.5149C50.6636 47.5149 51.0769 47.3323 51.3682 47.0118C51.7144 46.6323 52.1354 46.1697 52.6154 45.8077C52.8995 45.5933 53.1944 45.3846 53.5277 45.3846C55.0913 45.3846 56.3846 46.5908 56.3846 48.1067C56.3846 50.2656 55.3338 51.9559 54.1092 53.2236C52.7144 54.6662 51.0754 55.5856 50.2292 56.0026C49.3774 55.5882 47.7333 54.6805 46.3338 53.2815C45.1246 52.0718 44.0769 50.4774 44.0769 48.4615C44.0769 47.7559 44.439 46.9918 44.9744 46.3918C45.481 45.8241 46.1615 45.3846 46.9338 45.3846C47.2672 45.3846 47.562 45.5933 47.8462 45.8077C48.3262 46.1697 48.7472 46.6323 49.0933 47.0118ZM64.0503 39.2308H63.5718C62.7226 39.2308 62.0333 39.92 62.0333 40.7692C62.0333 41.6185 62.7226 42.3077 63.5718 42.3077H67.9231C68.7728 42.3077 69.4615 41.619 69.4615 40.7692V36.4179C69.4615 35.5687 68.7723 34.8795 67.9231 34.8795C67.0738 34.8795 66.3846 35.5687 66.3846 36.4179V37.2256C62.7149 32.8113 57.1831 30 51 30C39.9615 30 31 38.9615 31 50C31 50.8492 31.6892 51.5385 32.5385 51.5385C33.3877 51.5385 34.0769 50.8492 34.0769 50C34.0769 40.66 41.66 33.0769 51 33.0769C56.2503 33.0769 60.9451 35.4733 64.0503 39.2308Z" fill="white"/>
</svg>
